{
    "asset" : {
        "generator" : "Khronos glTF Blender I/O v3.2.43",
        "version" : "2.0"
    },
    "scene" : 0,
    "scenes" : [
        {
            "name" : "Scene",
            "nodes" : [
                0,
                1,
                2,
                3,
                4,
                5,
                6,
                7
            ]
        }
    ],
    "nodes" : [
        {
            "mesh" : 0,
            "name" : "donut",
            "scale" : [
                0.33046162128448486,
                0.33046162128448486,
                0.33046162128448486
            ],
            "translation" : [
                0,
                0.02080613747239113,
                0
            ]
        },
        {
            "mesh" : 1,
            "name" : "icing",
            "scale" : [
                0.33046162128448486,
                0.33046162128448486,
                0.33046162128448486
            ],
            "translation" : [
                0,
                0.02080613747239113,
                0
            ]
        },
        {
            "mesh" : 2,
            "name" : "Sphere.001",
            "scale" : [
                0.6690579652786255,
                0.6690579652786255,
                0.6690579652786255
            ],
            "translation" : [
                0.03276446834206581,
                0.04628446698188782,
                0.0041642021387815475
            ]
        },
        {
            "mesh" : 3,
            "name" : "Sphere.002",
            "scale" : [
                0.49587738513946533,
                0.49587738513946533,
                0.49587738513946533
            ],
            "translation" : [
                -0.02733371965587139,
                0.041504133492708206,
                -0.007299191318452358
            ]
        },
        {
            "mesh" : 4,
            "name" : "Sphere.003",
            "scale" : [
                0.49587738513946533,
                0.49587738513946533,
                0.49587738513946533
            ],
            "translation" : [
                0.0024914871901273727,
                0.04473147168755531,
                -0.024849101901054382
            ]
        },
        {
            "mesh" : 5,
            "name" : "Sphere.004",
            "scale" : [
                0.27390986680984497,
                0.27390986680984497,
                0.27390986680984497
            ],
            "translation" : [
                -0.033826928585767746,
                0.03610681742429733,
                0.03289398178458214
            ]
        },
        {
            "mesh" : 6,
            "name" : "Sphere.005",
            "scale" : [
                0.17616768181324005,
                0.17616768181324005,
                0.17616768181324005
            ],
            "translation" : [
                0.03326992318034172,
                0.03610681742429733,
                0.03289398178458214
            ]
        },
        {
            "mesh" : 7,
            "name" : "Sphere.006",
            "scale" : [
                0.8555456399917603,
                0.8555456399917603,
                0.8555456399917603
            ],
            "translation" : [
                -0.000356028787791729,
                0.041677214205265045,
                0.045009318739175797
            ]
        }
    ],
    "materials" : [
        {
            "doubleSided" : true,
            "name" : "Material.002",
            "pbrMetallicRoughness" : {
                "baseColorTexture" : {
                    "index" : 0
                },
                "metallicFactor" : 0
            }
        },
        {
            "doubleSided" : true,
            "name" : "Material.001",
            "pbrMetallicRoughness" : {
                "baseColorFactor" : [
                    0.6679739356040955,
                    0.2128821611404419,
                    0.8000000715255737,
                    1
                ],
                "metallicFactor" : 0,
                "roughnessFactor" : 0.15789473056793213
            }
        },
        {
            "doubleSided" : true,
            "name" : "Material.003",
            "pbrMetallicRoughness" : {
                "baseColorFactor" : [
                    0.3952009975910187,
                    0.2401212900876999,
                    0.8000000715255737,
                    1
                ],
                "metallicFactor" : 0.3544303774833679,
                "roughnessFactor" : 0.20042192935943604
            }
        }
    ],
    "meshes" : [
        {
            "name" : "Torus",
            "primitives" : [
                {
                    "attributes" : {
                        "POSITION" : 0,
                        "NORMAL" : 1,
                        "TEXCOORD_0" : 2
                    },
                    "indices" : 3,
                    "material" : 0
                }
            ]
        },
        {
            "name" : "Torus.001",
            "primitives" : [
                {
                    "attributes" : {
                        "POSITION" : 4,
                        "NORMAL" : 5,
                        "TEXCOORD_0" : 6
                    },
                    "indices" : 7,
                    "material" : 1
                }
            ]
        },
        {
            "name" : "Sphere.001",
            "primitives" : [
                {
                    "attributes" : {
                        "POSITION" : 8,
                        "NORMAL" : 9,
                        "TEXCOORD_0" : 10
                    },
                    "indices" : 11,
                    "material" : 2
                }
            ]
        },
        {
            "name" : "Sphere.002",
            "primitives" : [
                {
                    "attributes" : {
                        "POSITION" : 12,
                        "NORMAL" : 13,
                        "TEXCOORD_0" : 14
                    },
                    "indices" : 11,
                    "material" : 2
                }
            ]
        },
        {
            "name" : "Sphere.003",
            "primitives" : [
                {
                    "attributes" : {
                        "POSITION" : 15,
                        "NORMAL" : 16,
                        "TEXCOORD_0" : 17
                    },
                    "indices" : 11,
                    "material" : 2
                }
            ]
        },
        {
            "name" : "Sphere.004",
            "primitives" : [
                {
                    "attributes" : {
                        "POSITION" : 18,
                        "NORMAL" : 19,
                        "TEXCOORD_0" : 20
                    },
                    "indices" : 11,
                    "material" : 2
                }
            ]
        },
        {
            "name" : "Sphere.005",
            "primitives" : [
                {
                    "attributes" : {
                        "POSITION" : 21,
                        "NORMAL" : 22,
                        "TEXCOORD_0" : 23
                    },
                    "indices" : 11,
                    "material" : 2
                }
            ]
        },
        {
            "name" : "Sphere.006",
            "primitives" : [
                {
                    "attributes" : {
                        "POSITION" : 24,
                        "NORMAL" : 25,
                        "TEXCOORD_0" : 26
                    },
                    "indices" : 11,
                    "material" : 2
                }
            ]
        }
    ],
    "textures" : [
        {
            "sampler" : 0,
            "source" : 0
        }
    ],
    "images" : [
        {
            "bufferView" : 4,
            "mimeType" : "image/png",
            "name" : "Untitled"
        }
    ],
    "accessors" : [
        {
            "bufferView" : 0,
            "componentType" : 5126,
            "count" : 12545,
            "max" : [
                0.13809461891651154,
                0.06671150773763657,
                0.14699365198612213
            ],
            "min" : [
                -0.13959082961082458,
                -0.059264570474624634,
                -0.13536755740642548
            ],
            "type" : "VEC3"
        },
        {
            "bufferView" : 1,
            "componentType" : 5126,
            "count" : 12545,
            "type" : "VEC3"
        },
        {
            "bufferView" : 2,
            "componentType" : 5126,
            "count" : 12545,
            "type" : "VEC2"
        },
        {
            "bufferView" : 3,
            "componentType" : 5123,
            "count" : 73728,
            "type" : "SCALAR"
        },
        {
            "bufferView" : 5,
            "componentType" : 5126,
            "count" : 3716,
            "max" : [
                0.14444836974143982,
                0.073763906955719,
                0.1532023400068283
            ],
            "min" : [
                -0.14744903147220612,
                -0.034243661910295486,
                -0.14104105532169342
            ],
            "type" : "VEC3"
        },
        {
            "bufferView" : 6,
            "componentType" : 5126,
            "count" : 3716,
            "type" : "VEC3"
        },
        {
            "bufferView" : 7,
            "componentType" : 5126,
            "count" : 3716,
            "type" : "VEC2"
        },
        {
            "bufferView" : 8,
            "componentType" : 5123,
            "count" : 22080,
            "type" : "SCALAR"
        },
        {
            "bufferView" : 9,
            "componentType" : 5126,
            "count" : 559,
            "max" : [
                0.006210945546627045,
                0.00621095160022378,
                0.0062109436839818954
            ],
            "min" : [
                -0.0062109497375786304,
                -0.00621095160022378,
                -0.006210947874933481
            ],
            "type" : "VEC3"
        },
        {
            "bufferView" : 10,
            "componentType" : 5126,
            "count" : 559,
            "type" : "VEC3"
        },
        {
            "bufferView" : 11,
            "componentType" : 5126,
            "count" : 559,
            "type" : "VEC2"
        },
        {
            "bufferView" : 12,
            "componentType" : 5123,
            "count" : 2880,
            "type" : "SCALAR"
        },
        {
            "bufferView" : 13,
            "componentType" : 5126,
            "count" : 559,
            "max" : [
                0.006210945546627045,
                0.00621095160022378,
                0.0062109436839818954
            ],
            "min" : [
                -0.0062109497375786304,
                -0.00621095160022378,
                -0.006210947874933481
            ],
            "type" : "VEC3"
        },
        {
            "bufferView" : 14,
            "componentType" : 5126,
            "count" : 559,
            "type" : "VEC3"
        },
        {
            "bufferView" : 15,
            "componentType" : 5126,
            "count" : 559,
            "type" : "VEC2"
        },
        {
            "bufferView" : 16,
            "componentType" : 5126,
            "count" : 559,
            "max" : [
                0.006210945546627045,
                0.00621095160022378,
                0.0062109436839818954
            ],
            "min" : [
                -0.0062109497375786304,
                -0.00621095160022378,
                -0.006210947874933481
            ],
            "type" : "VEC3"
        },
        {
            "bufferView" : 17,
            "componentType" : 5126,
            "count" : 559,
            "type" : "VEC3"
        },
        {
            "bufferView" : 18,
            "componentType" : 5126,
            "count" : 559,
            "type" : "VEC2"
        },
        {
            "bufferView" : 19,
            "componentType" : 5126,
            "count" : 559,
            "max" : [
                0.006210945546627045,
                0.00621095160022378,
                0.0062109436839818954
            ],
            "min" : [
                -0.0062109497375786304,
                -0.00621095160022378,
                -0.006210947874933481
            ],
            "type" : "VEC3"
        },
        {
            "bufferView" : 20,
            "componentType" : 5126,
            "count" : 559,
            "type" : "VEC3"
        },
        {
            "bufferView" : 21,
            "componentType" : 5126,
            "count" : 559,
            "type" : "VEC2"
        },
        {
            "bufferView" : 22,
            "componentType" : 5126,
            "count" : 559,
            "max" : [
                0.006210945546627045,
                0.00621095160022378,
                0.0062109436839818954
            ],
            "min" : [
                -0.0062109497375786304,
                -0.00621095160022378,
                -0.006210947874933481
            ],
            "type" : "VEC3"
        },
        {
            "bufferView" : 23,
            "componentType" : 5126,
            "count" : 559,
            "type" : "VEC3"
        },
        {
            "bufferView" : 24,
            "componentType" : 5126,
            "count" : 559,
            "type" : "VEC2"
        },
        {
            "bufferView" : 25,
            "componentType" : 5126,
            "count" : 559,
            "max" : [
                0.006210945546627045,
                0.00621095160022378,
                0.0062109436839818954
            ],
            "min" : [
                -0.0062109497375786304,
                -0.00621095160022378,
                -0.006210947874933481
            ],
            "type" : "VEC3"
        },
        {
            "bufferView" : 26,
            "componentType" : 5126,
            "count" : 559,
            "type" : "VEC3"
        },
        {
            "bufferView" : 27,
            "componentType" : 5126,
            "count" : 559,
            "type" : "VEC2"
        }
    ],
    "bufferViews" : [
        {
            "buffer" : 0,
            "byteLength" : 150540,
            "byteOffset" : 0
        },
        {
            "buffer" : 0,
            "byteLength" : 150540,
            "byteOffset" : 150540
        },
        {
            "buffer" : 0,
            "byteLength" : 100360,
            "byteOffset" : 301080
        },
        {
            "buffer" : 0,
            "byteLength" : 147456,
            "byteOffset" : 401440
        },
        {
            "buffer" : 0,
            "byteLength" : 4429,
            "byteOffset" : 548896
        },
        {
            "buffer" : 0,
            "byteLength" : 44592,
            "byteOffset" : 553328
        },
        {
            "buffer" : 0,
            "byteLength" : 44592,
            "byteOffset" : 597920
        },
        {
            "buffer" : 0,
            "byteLength" : 29728,
            "byteOffset" : 642512
        },
        {
            "buffer" : 0,
            "byteLength" : 44160,
            "byteOffset" : 672240
        },
        {
            "buffer" : 0,
            "byteLength" : 6708,
            "byteOffset" : 716400
        },
        {
            "buffer" : 0,
            "byteLength" : 6708,
            "byteOffset" : 723108
        },
        {
            "buffer" : 0,
            "byteLength" : 4472,
            "byteOffset" : 729816
        },
        {
            "buffer" : 0,
            "byteLength" : 5760,
            "byteOffset" : 734288
        },
        {
            "buffer" : 0,
            "byteLength" : 6708,
            "byteOffset" : 740048
        },
        {
            "buffer" : 0,
            "byteLength" : 6708,
            "byteOffset" : 746756
        },
        {
            "buffer" : 0,
            "byteLength" : 4472,
            "byteOffset" : 753464
        },
        {
            "buffer" : 0,
            "byteLength" : 6708,
            "byteOffset" : 757936
        },
        {
            "buffer" : 0,
            "byteLength" : 6708,
            "byteOffset" : 764644
        },
        {
            "buffer" : 0,
            "byteLength" : 4472,
            "byteOffset" : 771352
        },
        {
            "buffer" : 0,
            "byteLength" : 6708,
            "byteOffset" : 775824
        },
        {
            "buffer" : 0,
            "byteLength" : 6708,
            "byteOffset" : 782532
        },
        {
            "buffer" : 0,
            "byteLength" : 4472,
            "byteOffset" : 789240
        },
        {
            "buffer" : 0,
            "byteLength" : 6708,
            "byteOffset" : 793712
        },
        {
            "buffer" : 0,
            "byteLength" : 6708,
            "byteOffset" : 800420
        },
        {
            "buffer" : 0,
            "byteLength" : 4472,
            "byteOffset" : 807128
        },
        {
            "buffer" : 0,
            "byteLength" : 6708,
            "byteOffset" : 811600
        },
        {
            "buffer" : 0,
            "byteLength" : 6708,
            "byteOffset" : 818308
        },
        {
            "buffer" : 0,
            "byteLength" : 4472,
            "byteOffset" : 825016
        }
    ],
    "samplers" : [
        {
            "magFilter" : 9729,
            "minFilter" : 9987
        }
    ],
    "buffers" : [
        {
            "byteLength" : 829488,
            "uri" : "data:application/octet-stream;base64,"
        }
    ]
}
