{
    "asset" : {
        "generator" : "Khronos glTF Blender I/O v3.2.43",
        "version" : "2.0"
    },
    "scene" : 0,
    "scenes" : [
        {
            "name" : "Scene",
            "nodes" : [
                0
            ]
        }
    ],
    "nodes" : [
        {
            "mesh" : 0,
            "name" : "Text",
            "translation" : [
                -4.7291741371154785,
                -0.10488240420818329,
                1.2190239429473877
            ]
        }
    ],
    "materials" : [
        {
            "doubleSided" : true,
            "name" : "Material.001",
            "pbrMetallicRoughness" : {
                "baseColorFactor" : [
                    0.24530808627605438,
                    0.08865375816822052,
                    0.012141980230808258,
                    1
                ],
                "metallicFactor" : 0.668181836605072
            }
        }
    ],
    "meshes" : [
        {
            "name" : "Text",
            "primitives" : [
                {
                    "attributes" : {
                        "POSITION" : 0,
                        "NORMAL" : 1
                    },
                    "indices" : 2,
                    "material" : 0
                }
            ]
        }
    ],
    "accessors" : [
        {
            "bufferView" : 0,
            "componentType" : 5126,
            "count" : 59918,
            "max" : [
                9.357911109924316,
                1.434532642364502,
                0.9716987013816833
            ],
            "min" : [
                -0.088389553129673,
                -1.4368771314620972,
                -3.0489234924316406
            ],
            "type" : "VEC3"
        },
        {
            "bufferView" : 1,
            "componentType" : 5126,
            "count" : 59918,
            "type" : "VEC3"
        },
        {
            "bufferView" : 2,
            "componentType" : 5123,
            "count" : 359472,
            "type" : "SCALAR"
        }
    ],
    "bufferViews" : [
        {
            "buffer" : 0,
            "byteLength" : 719016,
            "byteOffset" : 0
        },
        {
            "buffer" : 0,
            "byteLength" : 719016,
            "byteOffset" : 719016
        },
        {
            "buffer" : 0,
            "byteLength" : 718944,
            "byteOffset" : 1438032
        }
    ],
    "buffers" : [
        {
            "byteLength" : 2156976,
            "uri" : "data:application/octet-stream;base64,"
        }
    ]
}
